<?xml version="1.0" encoding="utf-8"?>
<!-- Generator: Adobe Illustrator 27.2.0, SVG Export Plug-In . SVG Version: 6.00 Build 0)  -->
<svg version="1.1" id="Ebene_1" xmlns="http://www.w3.org/2000/svg" xmlns:xlink="http://www.w3.org/1999/xlink" x="0px" y="0px"
	 viewBox="0 0 170.2 57" style="enable-background:new 0 0 170.2 57;" xml:space="preserve">
<g>
	<polygon points="118.4,42.9 134.7,42.9 134.7,38.9 118.4,38.9 118.4,30 135.7,30 135.7,26 113.7,26 113.7,56.6 136.4,56.6 
		136.4,52.6 118.4,52.6 	"/>
	<polygon points="20.7,38.9 4.7,38.9 4.7,26 0,26 0,56.6 4.7,56.6 4.7,42.9 20.7,42.9 20.7,56.6 25.4,56.6 25.4,26 20.7,26 	"/>
	<path d="M166.1,41.9c-1.2-0.7-3.9-1.7-8-3c-2.9-0.9-4.6-1.5-5.3-1.9c-1.6-0.9-2.3-1.9-2.3-3.3c0-1.5,0.7-2.6,2-3.3
		c1-0.6,2.6-0.9,4.6-0.9c2.3,0,4,0.4,5.2,1.3c1.2,0.9,2,2.3,2.4,4.3h4.6c-0.3-3.4-1.5-5.8-3.6-7.4c-2.1-1.5-4.8-2.3-8.3-2.1
		c-3.3,0-6,0.7-8.1,2.2c-2.3,1.5-3.4,3.6-3.4,6.3c0,2.6,1.1,4.7,3.5,6.1c0.9,0.5,3.2,1.3,7,2.5c3.4,1.1,5.4,1.8,6.1,2.1
		c1.9,1,2.9,2.3,2.9,4c0,1.4-0.7,2.4-2.1,3.2c-1.3,0.8-3.2,1.2-5.5,1.2c-2.6,0-4.5-0.5-5.7-1.4c-1.4-1-2.3-2.8-2.6-5.2h-4.6
		c0.3,3.9,1.7,6.7,4.2,8.5c2.1,1.4,5,2.2,8.7,2.2c3.9,0,6.9-0.8,9-2.3c2.1-1.6,3.2-3.8,3.2-6.5C170,45.7,168.7,43.5,166.1,41.9z"/>
	<path d="M49,25.5c-4.7,0-8.4,1.5-11,4.6c-2.6,2.9-3.8,6.7-3.8,11.4c0,4.6,1.2,8.4,3.8,11.3c2.7,3,6.3,4.5,11,4.5
		c4.6,0,8.3-1.5,11-4.5c2.6-2.9,3.9-6.7,3.9-11.4c0-4.7-1.3-8.5-3.9-11.4C57.3,27,53.6,25.5,49,25.5z M56.5,50
		c-1.8,2.1-4.3,3.2-7.5,3.2c-3.3,0-5.8-1.1-7.6-3.3c-1.7-2.1-2.6-4.9-2.6-8.5c0-3.6,0.9-6.4,2.6-8.5c1.8-2.2,4.3-3.3,7.6-3.3
		s5.8,1,7.5,3.2c1.7,2.1,2.6,5,2.6,8.7C59.1,45,58.2,47.9,56.5,50z"/>
	<rect x="46.7" y="38.4" width="4.7" height="4.7"/>
	<rect x="100.5" y="52" width="4.7" height="4.7"/>
	<polygon points="100.5,42.6 105.1,42.6 105.1,26 100.5,26 99.6,26 89,50.6 88.8,50.6 78.2,26 72.6,26 72.6,56.6 77.3,56.6 
		77.3,34.8 77.5,34.8 86.9,56.6 90.9,56.6 100.5,34.8 	"/>
	<path d="M31.2,9.4c-0.6,0.4-1.2,0.6-2,0.6c-1.2,0-2.1-0.3-2.7-1.1c-0.5-0.7-0.8-1.7-0.8-3c0-1.3,0.2-2.3,0.8-3
		c0.6-0.8,1.4-1.2,2.6-1.2c0.8,0,1.4,0.2,1.9,0.5s0.8,0.9,1,1.6h1.5c-0.1-1.1-0.6-2-1.4-2.6c-0.8-0.7-1.8-1-3.1-1
		c-1.7,0-3,0.6-3.8,1.7c-0.8,1-1.2,2.3-1.2,3.9c0,1.6,0.4,2.9,1.2,3.9c0.9,1.1,2.2,1.7,4,1.7c1.2,0,2.2-0.3,3-1
		c0.9-0.7,1.5-1.7,1.7-2.9h-1.6C32.1,8.3,31.7,9,31.2,9.4z"/>
	<polygon points="133.9,9.7 127.6,9.7 127.6,6.3 133.3,6.3 133.3,4.9 127.6,4.9 127.6,1.8 133.7,1.8 133.7,0.4 125.9,0.4 
		125.9,11.1 133.9,11.1 	"/>
	<polygon points="83.8,9.7 77.9,9.7 77.9,0.4 76.3,0.4 76.3,11.1 83.8,11.1 	"/>
	<path d="M57.5,9.5c-0.4,0.2-1.1,0.4-1.9,0.4c-0.9,0-1.6-0.2-2-0.5c-0.5-0.3-0.8-1-0.9-1.8h-1.6c0.1,1.4,0.6,2.4,1.5,3
		c0.8,0.5,1.8,0.8,3.1,0.8c1.4,0,2.4-0.3,3.2-0.8C59.6,10,60,9.3,60,8.3S59.6,6.5,58.8,6c-0.4-0.3-1.4-0.6-2.8-1.1
		c-1-0.3-1.7-0.6-1.9-0.7c-0.5-0.2-0.8-0.6-0.8-1.1c0-0.6,0.2-1,0.7-1.2c0.4-0.2,0.9-0.3,1.6-0.3c0.8,0,1.4,0.2,1.8,0.5
		c0.4,0.3,0.6,0.8,0.8,1.5h1.6c-0.1-1.2-0.5-2-1.3-2.6c-0.7-0.5-1.7-0.8-3.1-0.8c-1.1,0-2,0.3-2.8,0.8c-0.8,0.5-1.2,1.3-1.2,2.2
		c0,1,0.4,1.7,1.2,2.2c0.4,0.2,1.2,0.5,2.5,0.9C56.3,6.6,57,6.9,57.2,7c0.7,0.3,1,0.8,1,1.4C58.2,8.9,58,9.2,57.5,9.5z"/>
	<path d="M91.7,11.3c1.5,0,2.5-0.4,3.3-1.1s1.2-1.8,1.2-3.2V0.3h-1.6V7c0,1-0.2,1.7-0.6,2.1c-0.4,0.5-1.1,0.7-2.1,0.7
		c-0.9,0-1.6-0.2-2.1-0.7C89.3,8.7,89.1,8,89.1,7V0.3h-1.9V7c0,1.4,0.4,2.4,1.2,3.2C89.2,10.9,90.3,11.3,91.7,11.3z"/>
	<path d="M145.8,9.6l-0.2-1.5C145.5,7,145,6.4,144,6.2c0.6-0.2,1.1-0.5,1.4-0.9c0.3-0.4,0.5-1.2,0.5-1.8c0-1-0.3-1.8-1-2.3
		c-0.6-0.5-1.5-0.7-2.6-0.7h-4.8v1.4h1.6h2.9c0.8,0,1.3,0.1,1.7,0.4c0.3,0.3,0.5,0.7,0.5,1.3c0,0.6-0.2,1.3-0.5,1.6
		c-0.4,0.3-0.9,0.5-1.6,0.5h-2.9h-1.6v5.6h1.6V7h2.9c0.6,0,1.1,0.1,1.4,0.4c0.3,0.3,0.5,0.7,0.6,1.3l0.1,1.1
		c0.1,0.6,0.2,1.1,0.5,1.4h1.8C146.1,10.8,145.8,10.2,145.8,9.6z"/>
	<path d="M117.7,11.4c1.2,0,2.2-0.3,3-1c0.9-0.7,1.5-1.7,1.7-2.9h-1.6c-0.2,0.8-0.6,1.5-1.1,1.9c-0.6,0.4-1.2,0.6-2,0.6
		c-1.2,0-2.1-0.3-2.7-1.1c-0.5-0.7-0.8-1.7-0.8-3c0-1.3,0.2-2.3,0.8-3c0.6-0.8,1.4-1.2,2.6-1.2c0.8,0,1.4,0.2,1.9,0.5s0.8,0.9,1,1.6
		h1.6c-0.1-1.1-0.6-2-1.4-2.6c-0.8-0.7-1.9-1-3.1-1c-1.7,0-3,0.6-3.9,1.7c-0.8,1-1.2,2.3-1.2,3.9c0,1.6,0.4,2.9,1.2,3.9
		C114.6,10.8,115.9,11.4,117.7,11.4z"/>
	<rect x="117" y="4.9" width="5.2" height="1.4"/>
	<rect x="107.1" y="0.4" width="1.6" height="1.6"/>
	<polygon points="99.9,0.4 99.9,11.2 101.6,11.2 101.6,3.1 107.2,11.2 108.9,11.2 101.6,0.4 	"/>
	<polygon points="47.4,11.2 43.3,0.4 41.7,0.4 45.7,11.2 	"/>
	<polygon points="40.6,7 42.4,7 41.9,5.6 41.1,5.6 39.4,5.6 37.3,11.2 39,11.2 	"/>
	<polygon points="72.6,0.4 63.8,0.4 63.8,1.8 67.4,1.8 69,1.8 72.6,1.8 	"/>
	<rect x="67.4" y="3.5" width="1.6" height="7.7"/>
</g>
</svg>
