<svg xmlns="http://www.w3.org/2000/svg" xml:space="preserve" style="enable-background:new 0 0 170.2 57" viewBox="0 0 170.2 57">
  <path   d="M118.4 42.9h16.3v-4h-16.3V30h17.3v-4h-22v30.6h22.7v-4h-18zM20.7 38.9h-16V26H0v30.6h4.7V42.9h16v13.7h4.7V26h-4.7zM166.1 41.9c-1.2-.7-3.9-1.7-8-3-2.9-.9-4.6-1.5-5.3-1.9-1.6-.9-2.3-1.9-2.3-3.3 0-1.5.7-2.6 2-3.3 1-.6 2.6-.9 4.6-.9 2.3 0 4 .4 5.2 1.3 1.2.9 2 2.3 2.4 4.3h4.6c-.3-3.4-1.5-5.8-3.6-7.4-2.1-1.5-4.8-2.3-8.3-2.1-3.3 0-6 .7-8.1 2.2-2.3 1.5-3.4 3.6-3.4 6.3 0 2.6 1.1 4.7 3.5 6.1.9.5 3.2 1.3 7 2.5 3.4 1.1 5.4 1.8 6.1 2.1 1.9 1 2.9 2.3 2.9 4 0 1.4-.7 2.4-2.1 3.2-1.3.8-3.2 1.2-5.5 1.2-2.6 0-4.5-.5-5.7-1.4-1.4-1-2.3-2.8-2.6-5.2h-4.6c.3 3.9 1.7 6.7 4.2 8.5 2.1 1.4 5 2.2 8.7 2.2 3.9 0 6.9-.8 9-2.3 2.1-1.6 3.2-3.8 3.2-6.5 0-2.8-1.3-5-3.9-6.6zM49 25.5c-4.7 0-8.4 1.5-11 4.6-2.6 2.9-3.8 6.7-3.8 11.4 0 4.6 1.2 8.4 3.8 11.3 2.7 3 6.3 4.5 11 4.5 4.6 0 8.3-1.5 11-4.5 2.6-2.9 3.9-6.7 3.9-11.4S62.6 32.9 60 30c-2.7-3-6.4-4.5-11-4.5zM56.5 50c-1.8 2.1-4.3 3.2-7.5 3.2-3.3 0-5.8-1.1-7.6-3.3-1.7-2.1-2.6-4.9-2.6-8.5 0-3.6.9-6.4 2.6-8.5 1.8-2.2 4.3-3.3 7.6-3.3s5.8 1 7.5 3.2c1.7 2.1 2.6 5 2.6 8.7 0 3.5-.9 6.4-2.6 8.5z"/>
  <path   d="M46.7 38.4h4.7v4.7h-4.7zM100.5 52h4.7v4.7h-4.7zM100.5 42.6h4.6V26h-5.5L89 50.6h-.2L78.2 26h-5.6v30.6h4.7V34.8h.2l9.4 21.8h4l9.6-21.8zM31.2 9.4c-.6.4-1.2.6-2 .6-1.2 0-2.1-.3-2.7-1.1-.5-.7-.8-1.7-.8-3s.2-2.3.8-3c.6-.8 1.4-1.2 2.6-1.2.8 0 1.4.2 1.9.5s.8.9 1 1.6h1.5c-.1-1.1-.6-2-1.4-2.6-.8-.7-1.8-1-3.1-1-1.7 0-3 .6-3.8 1.7-.8 1-1.2 2.3-1.2 3.9s.4 2.9 1.2 3.9c.9 1.1 2.2 1.7 4 1.7 1.2 0 2.2-.3 3-1 .9-.7 1.5-1.7 1.7-2.9h-1.6c-.2.8-.6 1.5-1.1 1.9zM133.9 9.7h-6.3V6.3h5.7V4.9h-5.7V1.8h6.1V.4h-7.8v10.7h8zM83.8 9.7h-5.9V.4h-1.6v10.7h7.5zM57.5 9.5c-.4.2-1.1.4-1.9.4-.9 0-1.6-.2-2-.5-.5-.3-.8-1-.9-1.8h-1.6c.1 1.4.6 2.4 1.5 3 .8.5 1.8.8 3.1.8 1.4 0 2.4-.3 3.2-.8.7-.6 1.1-1.3 1.1-2.3s-.4-1.8-1.2-2.3c-.4-.3-1.4-.6-2.8-1.1-1-.3-1.7-.6-1.9-.7-.5-.2-.8-.6-.8-1.1 0-.6.2-1 .7-1.2.4-.2.9-.3 1.6-.3.8 0 1.4.2 1.8.5.4.3.6.8.8 1.5h1.6c-.1-1.2-.5-2-1.3-2.6-.7-.5-1.7-.8-3.1-.8-1.1 0-2 .3-2.8.8-.8.5-1.2 1.3-1.2 2.2 0 1 .4 1.7 1.2 2.2.4.2 1.2.5 2.5.9 1.2.3 1.9.6 2.1.7.7.3 1 .8 1 1.4 0 .5-.2.8-.7 1.1zM91.7 11.3c1.5 0 2.5-.4 3.3-1.1s1.2-1.8 1.2-3.2V.3h-1.6V7c0 1-.2 1.7-.6 2.1-.4.5-1.1.7-2.1.7-.9 0-1.6-.2-2.1-.7-.5-.4-.7-1.1-.7-2.1V.3h-1.9V7c0 1.4.4 2.4 1.2 3.2.8.7 1.9 1.1 3.3 1.1zM145.8 9.6l-.2-1.5c-.1-1.1-.6-1.7-1.6-1.9.6-.2 1.1-.5 1.4-.9.3-.4.5-1.2.5-1.8 0-1-.3-1.8-1-2.3-.6-.5-1.5-.7-2.6-.7h-4.8v1.4h4.5c.8 0 1.3.1 1.7.4.3.3.5.7.5 1.3 0 .6-.2 1.3-.5 1.6-.4.3-.9.5-1.6.5h-4.5v5.6h1.6V7h2.9c.6 0 1.1.1 1.4.4.3.3.5.7.6 1.3l.1 1.1c.1.6.2 1.1.5 1.4h1.8c-.4-.4-.7-1-.7-1.6zM117.7 11.4c1.2 0 2.2-.3 3-1 .9-.7 1.5-1.7 1.7-2.9h-1.6c-.2.8-.6 1.5-1.1 1.9-.6.4-1.2.6-2 .6-1.2 0-2.1-.3-2.7-1.1-.5-.7-.8-1.7-.8-3s.2-2.3.8-3c.6-.8 1.4-1.2 2.6-1.2.8 0 1.4.2 1.9.5s.8.9 1 1.6h1.6c-.1-1.1-.6-2-1.4-2.6-.8-.7-1.9-1-3.1-1-1.7 0-3 .6-3.9 1.7-.8 1-1.2 2.3-1.2 3.9s.4 2.9 1.2 3.9c.9 1.1 2.2 1.7 4 1.7z"/>
  <path   d="M117 4.9h5.2v1.4H117zM107.1.4h1.6V2h-1.6zM99.9.4v10.8h1.7V3.1l5.6 8.1h1.7L101.6.4zM47.4 11.2 43.3.4h-1.6l4 10.8zM40.6 7h1.8l-.5-1.4h-2.5l-2.1 5.6H39zM72.6.4h-8.8v1.4h8.8zM67.4 3.5H69v7.7h-1.6z"/>
</svg>