<svg aria-hidden="true" style="position: absolute; width: 0; height: 0; overflow: hidden;" version="1.1" xmlns="http://www.w3.org/2000/svg" xmlns:xlink="http://www.w3.org/1999/xlink">
<defs>
<symbol id="icon-call" viewBox="0 0 30 32">
<path fill="#baed29" style="fill: var(--color1, #baed29)" d="M29.097 25.184l-4.468-4.468c-1.254-1.254-3.288-1.254-4.542 0l-0.699 0.699c-0.562 0.561-0.953 1.271-1.127 2.047-1.515 0.028-3.227-0.229-4.692-1.18-0.9-0.669-1.749-1.403-2.542-2.195-0.67-0.669-1.298-1.379-1.88-2.125-1.142-1.534-1.443-3.395-1.413-5.027 0.776-0.173 1.485-0.564 2.047-1.127l0.699-0.699c1.254-1.254 1.254-3.288 0-4.542l-4.468-4.468c-0.836-0.836-2.192-0.836-3.028 0l-0.767 0.767c-0.983 0.983-1.487 2.264-1.513 3.553-0.252 2.719 0.269 5.712 1.506 8.656 0.817 1.944 1.938 3.842 3.304 5.606 0.017 0.023 0.034 0.046 0.051 0.069l0.002-0.002c0.697 0.895 1.449 1.745 2.251 2.547 0.829 0.83 1.71 1.606 2.637 2.324l-0.009 0.012c0.155 0.117 0.312 0.23 0.473 0.339 3.898 2.883 8.303 4.503 12.403 4.503 0.239-0 0.478-0.007 0.715-0.018 1.527 0.188 3.122-0.303 4.294-1.475l0.767-0.767c0.836-0.836 0.836-2.192 0-3.028z"></path>
</symbol>
<symbol id="icon-logo" viewBox="0 0 96 32">
<path d="M66.47 24.084h9.151v-2.246h-9.151v-4.997h9.712v-2.246h-12.351v17.179h12.744v-2.246h-10.105zM11.621 21.839h-8.982v-7.242h-2.639v17.179h2.639v-7.691h8.982v7.691h2.639v-17.179h-2.639zM93.249 23.523c-0.674-0.393-2.189-0.954-4.491-1.684-1.628-0.505-2.582-0.842-2.975-1.067-0.898-0.505-1.291-1.067-1.291-1.853 0-0.842 0.393-1.46 1.123-1.853 0.561-0.337 1.46-0.505 2.582-0.505 1.291 0 2.246 0.225 2.919 0.73s1.123 1.291 1.347 2.414h2.582c-0.168-1.909-0.842-3.256-2.021-4.154-1.179-0.842-2.695-1.291-4.66-1.179-1.853 0-3.368 0.393-4.547 1.235-1.291 0.842-1.909 2.021-1.909 3.537 0 1.46 0.618 2.639 1.965 3.425 0.505 0.281 1.796 0.73 3.93 1.404 1.909 0.618 3.032 1.011 3.425 1.179 1.067 0.561 1.628 1.291 1.628 2.246 0 0.786-0.393 1.347-1.179 1.796-0.73 0.449-1.796 0.674-3.088 0.674-1.46 0-2.526-0.281-3.2-0.786-0.786-0.561-1.291-1.572-1.46-2.919h-2.582c0.168 2.189 0.954 3.761 2.358 4.772 1.179 0.786 2.807 1.235 4.884 1.235 2.189 0 3.874-0.449 5.053-1.291 1.179-0.898 1.796-2.133 1.796-3.649 0-1.572-0.73-2.807-2.189-3.705zM27.509 14.316c-2.639 0-4.716 0.842-6.175 2.582-1.46 1.628-2.133 3.761-2.133 6.4 0 2.582 0.674 4.716 2.133 6.344 1.516 1.684 3.537 2.526 6.175 2.526 2.582 0 4.66-0.842 6.175-2.526 1.46-1.628 2.189-3.761 2.189-6.4s-0.73-4.772-2.189-6.4c-1.516-1.684-3.593-2.526-6.175-2.526zM31.719 28.070c-1.011 1.179-2.414 1.796-4.211 1.796-1.853 0-3.256-0.618-4.267-1.853-0.954-1.179-1.46-2.751-1.46-4.772s0.505-3.593 1.46-4.772c1.011-1.235 2.414-1.853 4.267-1.853s3.256 0.561 4.211 1.797c0.954 1.179 1.46 2.807 1.46 4.884 0 1.965-0.505 3.593-1.46 4.772z"></path>
<path d="M26.218 21.558h2.639v2.639h-2.639zM56.421 29.193h2.639v2.639h-2.639zM56.421 23.916h2.582v-9.319h-3.088l-5.951 13.811h-0.112l-5.951-13.811h-3.144v17.179h2.639v-12.239h0.112l5.277 12.239h2.246l5.389-12.239zM17.516 5.277c-0.337 0.225-0.674 0.337-1.123 0.337-0.674 0-1.179-0.168-1.516-0.618-0.281-0.393-0.449-0.954-0.449-1.684s0.112-1.291 0.449-1.684c0.337-0.449 0.786-0.674 1.46-0.674 0.449 0 0.786 0.112 1.067 0.281s0.449 0.505 0.561 0.898h0.842c-0.056-0.618-0.337-1.123-0.786-1.46-0.449-0.393-1.011-0.561-1.74-0.561-0.954 0-1.684 0.337-2.133 0.954-0.449 0.561-0.674 1.291-0.674 2.189s0.225 1.628 0.674 2.189c0.505 0.618 1.235 0.954 2.246 0.954 0.674 0 1.235-0.168 1.684-0.561 0.505-0.393 0.842-0.954 0.954-1.628h-0.898c-0.112 0.449-0.337 0.842-0.618 1.067zM75.172 5.446h-3.537v-1.909h3.2v-0.786h-3.2v-1.74h3.425v-0.786h-4.379v6.007h4.491zM47.046 5.446h-3.312v-5.221h-0.898v6.007h4.211zM32.281 5.333c-0.225 0.112-0.618 0.225-1.067 0.225-0.505 0-0.898-0.112-1.123-0.281-0.281-0.168-0.449-0.561-0.505-1.011h-0.898c0.056 0.786 0.337 1.347 0.842 1.684 0.449 0.281 1.011 0.449 1.74 0.449 0.786 0 1.347-0.168 1.797-0.449 0.393-0.337 0.618-0.73 0.618-1.291s-0.225-1.011-0.674-1.291c-0.225-0.168-0.786-0.337-1.572-0.618-0.561-0.168-0.954-0.337-1.067-0.393-0.281-0.112-0.449-0.337-0.449-0.618 0-0.337 0.112-0.561 0.393-0.674 0.225-0.112 0.505-0.168 0.898-0.168 0.449 0 0.786 0.112 1.011 0.281s0.337 0.449 0.449 0.842h0.898c-0.056-0.674-0.281-1.123-0.73-1.46-0.393-0.281-0.954-0.449-1.74-0.449-0.618 0-1.123 0.168-1.572 0.449s-0.674 0.73-0.674 1.235c0 0.561 0.225 0.954 0.674 1.235 0.225 0.112 0.674 0.281 1.404 0.505 0.674 0.168 1.067 0.337 1.179 0.393 0.393 0.168 0.561 0.449 0.561 0.786 0 0.281-0.112 0.449-0.393 0.618zM51.481 6.344c0.842 0 1.404-0.225 1.853-0.618s0.674-1.011 0.674-1.796v-3.761h-0.898v3.761c0 0.561-0.112 0.954-0.337 1.179-0.225 0.281-0.618 0.393-1.179 0.393-0.505 0-0.898-0.112-1.179-0.393-0.281-0.225-0.393-0.618-0.393-1.179v-3.761h-1.067v3.761c0 0.786 0.225 1.347 0.674 1.796 0.449 0.393 1.067 0.618 1.853 0.618zM81.853 5.389l-0.112-0.842c-0.056-0.618-0.337-0.954-0.898-1.067 0.337-0.112 0.618-0.281 0.786-0.505s0.281-0.674 0.281-1.011c0-0.561-0.168-1.011-0.561-1.291-0.337-0.281-0.842-0.393-1.46-0.393h-2.695v0.786h2.526c0.449 0 0.73 0.056 0.954 0.225 0.168 0.168 0.281 0.393 0.281 0.73s-0.112 0.73-0.281 0.898c-0.225 0.168-0.505 0.281-0.898 0.281h-2.526v3.144h0.898v-2.414h1.628c0.337 0 0.618 0.056 0.786 0.225s0.281 0.393 0.337 0.73l0.056 0.618c0.056 0.337 0.112 0.618 0.281 0.786h1.011c-0.225-0.225-0.393-0.561-0.393-0.898zM66.077 6.4c0.674 0 1.235-0.168 1.684-0.561 0.505-0.393 0.842-0.954 0.954-1.628h-0.898c-0.112 0.449-0.337 0.842-0.618 1.067-0.337 0.225-0.674 0.337-1.123 0.337-0.674 0-1.179-0.168-1.516-0.618-0.281-0.393-0.449-0.954-0.449-1.684s0.112-1.291 0.449-1.684c0.337-0.449 0.786-0.674 1.46-0.674 0.449 0 0.786 0.112 1.067 0.281s0.449 0.505 0.561 0.898h0.898c-0.056-0.618-0.337-1.123-0.786-1.46-0.449-0.393-1.067-0.561-1.74-0.561-0.954 0-1.684 0.337-2.189 0.954-0.449 0.561-0.674 1.291-0.674 2.189s0.225 1.628 0.674 2.189c0.505 0.618 1.235 0.954 2.246 0.954z"></path>
<path d="M65.684 2.751h2.919v0.786h-2.919zM60.126 0.225h0.898v0.898h-0.898zM56.084 0.225v6.063h0.954v-4.547l3.144 4.547h0.954l-4.098-6.063zM26.611 6.288l-2.302-6.063h-0.898l2.246 6.063zM22.793 3.93h1.011l-0.281-0.786h-1.404l-1.179 3.144h0.954zM40.758 0.225h-4.94v0.786h4.94zM37.839 1.965h0.898v4.323h-0.898z"></path>
</symbol>
</defs>
</svg>
